<svg width="22" height="20" viewBox="0 0 22 20" fill="none" xmlns="http://www.w3.org/2000/svg">
<path d="M0 2C0 1.17157 0.671573 0.5 1.5 0.5H20.5C21.3284 0.5 22 1.17157 22 2C22 2.82843 21.3284 3.5 20.5 3.5H1.5C0.671573 3.5 0 2.82843 0 2Z" fill="white"/>
<path d="M0 10C0 9.17157 0.671573 8.5 1.5 8.5H20.5C21.3284 8.5 22 9.17157 22 10C22 10.8284 21.3284 11.5 20.5 11.5H1.5C0.671573 11.5 0 10.8284 0 10Z" fill="white"/>
<path d="M0 18C0 17.1716 0.671573 16.5 1.5 16.5H20.5C21.3284 16.5 22 17.1716 22 18C22 18.8284 21.3284 19.5 20.5 19.5H1.5C0.671573 19.5 0 18.8284 0 18Z" fill="white"/>
</svg>
